# xmcd
# 
# Track frame offsets:
#     150
#     14115
#     27136
#     37514
#     50271
#     63368
#     73827
#     85867
#     99603
#     111489
#     123531
#     138483
#     149307
#     160836
#     171317
#     184366
#     194803
#     205013
#     219299
#     230912
#     244282
#     258697
#     268933
#     280761
#     291830
#     302384
#     315741
#     331863
#     345926
# 
# Disc length: 4771
# 
# Revision: 1
# Processed by: cddbd v1.5.2PL0 Copyright (c) Steve Scherf et al.
# Submitted via: fre:ac v1.0.27
# 
DISCID=c012a11d
DTITLE=Various Artist - This Is Soul
DYEAR=2007
DGENRE=Soul
TTITLE0=Wilson Pickett - Mustang Sally
TTITLE1=Carla Thomas - B-A-B-Y
TTITLE2=Arthur Conley - Sweet Soul Music
TTITLE3=Percy Sledge - When A Man Loves A Woman
TTITLE4=Sam and Dave - I Got Everything I Need
TTITLE5=Ben E. King - What Is Soul?
TTITLE6=Otis Redding - Fa-Fa-Fa-Fa-Fa (Sad Song)
TTITLE7=Eddie Floyd - Knock On Wood
TTITLE8=Solomon Burke - Keep Looking
TTITLE9=Aretha Franklin - I Never Loved A Man
TTITLE10=Percy Sledge - Warm And Tender Love
TTITLE11=Wilson Pickett - Land Of 1000 Dances
TTITLE12=Sam and Dave - Hold On I'm Coming
TTITLE13=Bar-Kays - Soul Finger
TTITLE14=King Curtis - Memphis Soul Stew
TTITLE15=Otis Redding - Hard To Handle
TTITLE16=Aretha Franklin - Save Me
TTITLE17=Archie Bell and The Drells - Tighten Up Pt 1
TTITLE18=Wilson Pickett - Funky Broadway
TTITLE19=Otis Redding and Carla Thomas - Tramp
TTITLE20=Mad Lads - Get Out Of My Life
TTITLE21=Barbara Lynn - Your Losing Me
TTITLE22=Soul Brothers Six - Some Kind Of Wonderful
TTITLE23=Jeanne and The Darlings - Soul Girl
TTITLE24=Arthur Conley - Funky Street
TTITLE25=Eddie Floyd - Big Bird
TTITLE26=Soul Clan - Soul Meeting
TTITLE27=Johnny Taylor - Ain't That Loving You (For More Reasons Than One)
TTITLE28=Otis Redding - (Sittin' On) The Dock Of The Bay
EXTD=
EXTT0=
EXTT1=
EXTT2=
EXTT3=
EXTT4=
EXTT5=
EXTT6=
EXTT7=
EXTT8=
EXTT9=
EXTT10=
EXTT11=
EXTT12=
EXTT13=
EXTT14=
EXTT15=
EXTT16=
EXTT17=
EXTT18=
EXTT19=
EXTT20=
EXTT21=
EXTT22=
EXTT23=
EXTT24=
EXTT25=
EXTT26=
EXTT27=
EXTT28=
PLAYORDER=
